<?xml version="1.0" encoding="UTF-8"?>
<svg width="256px" height="54px" viewBox="0 0 256 54" version="1.1" xmlns="http://www.w3.org/2000/svg" xmlns:xlink="http://www.w3.org/1999/xlink">
    <!-- Generator: Sketch 58 (84663) - https://sketch.com -->
    <title>MR_Logo_No_Strap_PMS390</title>
    <desc>Created with Sketch.</desc>
    <defs>
        <polygon id="path-1" points="0.0897790055 0.0405859873 124.789365 0.0405859873 124.789365 53.9793631 0.0897790055 53.9793631"></polygon>
    </defs>
    <g id="Home-Page" stroke="none" stroke-width="1" fill="none" fill-rule="evenodd">
        <g id="Home-Page__1.2-(Desktop)" transform="translate(-45.000000, -22.000000)">
            <g id="Menu">
                <g id="MR_Logo_No_Strap_PMS390" transform="translate(45.000000, 22.000000)">
                    <path d="M28.8178135,41 L28.8178135,26.0571327 C28.8178135,24.5079054 28.4136794,23.3693621 27.605068,22.6415027 C26.7967999,21.9143284 25.8374536,21.5502274 24.7284027,21.5502274 C23.6179783,21.5502274 22.6514215,21.9061079 21.8273589,22.6178687 C21.0026095,23.3296295 20.5909216,24.4287828 20.5909216,25.914986 L20.5909216,41 L14.4087351,41 L14.4087351,26.0571327 C14.4087351,24.5079054 14.004601,23.3693621 13.1963329,22.6415027 C12.3877215,21.9143284 11.4287186,21.5502274 10.3193243,21.5502274 C9.17799753,21.5502274 8.20320011,21.9143284 7.39458866,22.6415027 C6.58632056,23.3693621 6.18184315,24.5079054 6.18184315,26.0571327 L6.18184315,41 L0,41 L0,16.2846358 L6.03934899,16.2846358 L6.03934899,18.562065 C6.83147919,17.7396695 7.7750309,17.1077163 8.86897404,16.6644928 C9.96257382,16.2219543 11.0802088,16 12.2215355,16 C15.074509,16 17.2620519,17.0436647 18.7838209,19.1313367 C19.8300371,18.0561599 20.9394314,17.265619 22.1126906,16.7593714 C23.285263,16.2534663 24.6487433,16 26.2024447,16 C27.438882,16 28.5874193,16.1900997 29.6497734,16.5692717 C30.7117841,16.9491286 31.591471,17.4872308 32.2895207,18.182208 C33.2402829,19.1313367 33.9297487,20.1828794 34.3579179,21.3368362 C34.7860871,22.4918206 35,23.780046 35,25.2032252 L35,41 L28.8178135,41" id="Fill-1" fill="#55595A"></path>
                    <path d="M55.6657341,30.4267179 L50.6472224,30.4267179 C48.2756986,30.4267179 47.0904644,31.3509724 47.0904644,33.1994815 C47.0904644,34.0769126 47.3986464,34.7660319 48.0164176,35.2671788 C48.6327816,35.7683256 49.5425518,36.0187294 50.7446727,36.0187294 C51.7191751,36.0187294 52.4987771,35.9410296 53.0834785,35.7839334 C53.66818,35.6275159 54.2201635,35.3143416 54.7401327,34.8444104 C55.3568485,34.2804929 55.6657341,33.2466443 55.6657341,31.7425252 L55.6657341,30.4267179 Z M55.8120854,40.7648648 L55.8120854,38.6503441 C54.9350332,39.4965595 54.0337064,40.0994965 53.1077531,40.4594943 C52.1821517,40.8191528 51.0043054,41 49.5752697,41 C46.7495644,41 44.5887724,40.279665 43.0950044,38.8383165 C41.697983,37.4288623 41,35.595961 41,33.339952 C41,31.272594 41.7384407,29.5733771 43.217081,28.2416227 C44.694666,26.9105468 46.8466629,26.2444999 49.67272,26.2444999 L55.6657341,26.2444999 L55.6657341,25.0226788 C55.6657341,23.6759952 55.3005595,22.6967739 54.5695068,22.0856937 C53.8388059,21.4749528 52.6282416,21.1695824 50.9395731,21.1695824 C49.7701702,21.1695824 48.8361254,21.3185353 48.1381425,21.6157625 C47.4391041,21.9140077 46.7495644,22.438227 46.0674127,23.1901169 L42.0230517,19.3838439 C43.2244689,18.0995915 44.507857,17.2146958 45.8721604,16.7288175 C47.2364638,16.2432785 49.0067513,16 51.1833747,16 C58.394341,16 62,18.882697 62,24.6467339 L62,40.7648648 L55.8120854,40.7648648 L55.8120854,40.7648648 Z" id="Fill-2" fill="#55595A"></path>
                    <polyline id="Fill-3" fill="#55595A" points="84.1878199 41 77.9767548 30.6378424 75.308113 33.5982618 75.308113 41 69 41 69 7 75.308113 7 75.308113 26.2920322 83.7025804 16.1205468 91.3206648 16.1205468 82.2955612 26.1489418 92 41 84.1878199 41"></polyline>
                    <path d="M110.627813,24.8417773 C110.546989,24.4509618 110.409832,24.0371173 110.215993,23.5985505 C109.860156,22.8172582 109.327274,22.1995394 108.616648,21.7457329 C107.906023,21.2929423 107.033748,21.0657004 106.000175,21.0657004 C104.998441,21.0657004 104.134564,21.2929423 103.407494,21.7457329 C102.680774,22.1995394 102.139495,22.8172582 101.784357,23.5985505 C101.590168,24.0371173 101.452662,24.4509618 101.372187,24.8417773 C101.291363,25.2329315 101.234331,25.6938499 101.20284,26.22521 L110.797509,26.22521 C110.76497,25.6938499 110.708288,25.2329315 110.627813,24.8417773 Z M101.20284,30.399553 C101.20284,32.0261447 101.694785,33.3391357 102.680774,34.3392035 C103.665712,35.3406258 105.014186,35.840829 106.726895,35.840829 C108.051227,35.840829 109.125738,35.6609997 109.949377,35.3010024 C110.773367,34.9416825 111.604704,34.3557979 112.445139,33.5423327 L116.27328,37.1538201 C114.884218,38.4983067 113.478712,39.4753454 112.057461,40.085275 C110.635511,40.6952046 108.842327,41 106.678611,41 C105.062821,41 103.568793,40.7964644 102.196177,40.3900704 C100.822511,39.9840152 99.5950984,39.3114332 98.5132401,38.3733406 C97.4306821,37.4355866 96.5748525,36.1449472 95.9450514,34.5041317 C95.3149005,32.8623002 95,30.8533595 95,28.4766323 C95,24.5366432 96.0010338,21.4724329 98.0045009,19.283663 C100.007268,17.0952316 102.672376,16 106.000175,16 C109.424193,16 112.113444,17.0871038 114.068626,19.2599567 C116.022409,21.4334869 117,24.239637 117,27.6794229 L117,30.399553 L101.20284,30.399553 L101.20284,30.399553 Z" id="Fill-4" fill="#55595A"></path>
                    <path d="M164.818087,21.6348448 C164.229004,21.0994421 163.461673,20.8315712 162.515748,20.8315712 L158.384205,20.8315712 L158.384205,26.6406399 L162.515748,26.6406399 C163.461673,26.6406399 164.229004,26.3731081 164.818087,25.8370272 C165.406478,25.3016245 165.70102,24.6010912 165.70102,23.7361055 C165.70102,22.8707808 165.406478,22.1709257 164.818087,21.6348448 Z M165.92184,39 L161.537981,30.2246848 L158.384205,30.2246848 L158.384205,39 L154,39 L154,17 L162.799214,17 C163.913696,17 164.928497,17.1753029 165.842926,17.5252304 C166.757701,17.8758361 167.530224,18.3596991 168.161533,18.9774976 C168.792149,19.5956352 169.270131,20.311766 169.596168,21.1248728 C169.92186,21.9389969 170.085225,22.8090688 170.085225,23.7361055 C170.085225,25.1988841 169.695849,26.4243087 168.918134,27.4130576 C168.140074,28.4018064 167.162306,29.1023396 165.984832,29.5143183 L171,39 L165.92184,39 L165.92184,39 Z" id="Fill-5" fill="#55595A"></path>
                    <polyline id="Fill-6" fill="#55595A" points="177 39 177 17 192 17 192 20.8315712 181.445705 20.8315712 181.445705 25.9916464 190.43293 25.9916464 190.43293 29.8232175 181.445705 29.8232175 181.445705 35.1687679 192 35.1687679 192 39 177 39"></polyline>
                    <path d="M206.095761,23.4889183 L203.229231,31.4918159 L208.86618,31.4918159 L206.095761,23.4889183 Z M211.382169,39 L210.044665,35.1070559 L201.987139,35.1070559 L200.617831,39 L196,39 L204.248349,17 L207.719848,17 L216,39 L211.382169,39 L211.382169,39 Z" id="Fill-7" fill="#55595A"></path>
                    <g id="Group-12" transform="translate(131.000000, 0.000000)">
                        <mask id="mask-2" fill="white">
                            <use xlink:href="#path-1"></use>
                        </mask>
                        <g id="Clip-9"></g>
                        <polyline id="Fill-8" fill="#55595A" mask="url(#mask-2)" points="90.5424724 38.6595287 90.5424724 16.3434268 94.9164365 16.3434268 94.9164365 34.7732484 105.08011 34.7732484 105.08011 38.6595287 90.5424724 38.6595287"></polyline>
                        <polyline id="Fill-10" fill="#A6B739" mask="url(#mask-2)" points="114.328384 0.0405859873 124.789365 0.0405859873 124.789365 54 114.30145 54 114.328384 48.580051 119.688881 48.552879 119.655041 5.4343949 114.328384 5.4343949 114.328384 0.0405859873"></polyline>
                        <polyline id="Fill-11" fill="#A6B739" mask="url(#mask-2)" points="10.5507597 54 0.0897790055 54 0.0897790055 0.0405859873 10.5776934 0.0405859873 10.5507597 5.46087898 5.18991713 5.48770701 5.22410221 48.606535 10.5507597 48.606535 10.5507597 54"></polyline>
                    </g>
                </g>
            </g>
        </g>
    </g>
</svg>