<svg xmlns="http://www.w3.org/2000/svg" viewBox="0 0 973.85 973.85"><defs><style>.cls-1{fill:#fff;}</style></defs><g id="Layer_1" data-name="Layer 1"><path class="cls-1" d="M13.08,13.08H986.92V986.92H13.08Zm292.4,726c-6.31,3.16-12.64,6.08-18.71,9.45-6.23,3.46-12.27,7.25-18.28,11.09-5.51,3.52-7.11,7.73-4.75,11.57s6.68,4,12.26.45c.69-.43,1.33-.93,2-1.33,10.58-5.94,21.21-11.79,31.72-17.85,4.87-2.81,8.13-1.54,12.18,2.21C370,799.07,428,819.27,492.23,823c15.34.88,31-1.11,46.33-3.44,53.32-8.13,100.81-29.06,140.35-66.48,2.61-2.47,4.9-3.26,8.08-1.47,12.4,7,24.86,13.85,37.24,20.85,4.67,2.63,8.38,2.45,10.78-.84s1.43-7.9-2.89-10.83c-5.23-3.54-10.55-7-16-10.06-7.43-4.16-15.07-7.94-22.42-11.78,7.46-10.17,14.85-20.36,22.45-30.4a5.42,5.42,0,0,1,4.16-1.64c17.71,1.34,35.44,2.53,53.09,4.45,10.58,1.16,21,3.75,31.54,5.25,4.69.66,8.31-2.26,8.43-6.08.13-4.43-2.59-6.9-6.72-7.55-19.81-3.09-39.62-6.22-59.48-9-6.81-1-13.74-1-21.21-1.49.78-1.71,1.33-3,1.93-4.25,3.6-7.6,7.47-15.09,10.72-22.85,1.49-3.55,3.4-5.47,7.23-6,19.24-2.63,38.46-5.45,57.7-8.1,5.93-.82,11.92-1.19,17.86-2s9-4.49,7.93-8.89c-.9-3.61-4.63-5.61-9.83-5q-28.87,3.44-57.73,7c-4.86.6-9.71,1.38-15.17,2.16,9.65-28.31,14.76-56.72,17.81-85.59,2.91,0,5.16-.05,7.42,0,16.54.47,33,0,49.36-2.93,35.92-6.44,68.43-20.45,94.86-45.85,45.35-43.57,60.25-97,46.83-158-10.44-47.43-36.17-86.18-73.42-116.7C829.86,186.77,762,165.85,685.58,181.66,626.09,194,582,227.34,558.15,284.7c-1.12,2.7-2.44,3-5.1,2.83-14.34-1.15-28.72-2.93-43.07-2.82-21.17.17-42.34,1.62-63.5,2.83-3.41.2-4.78-.62-6-3.71a152.8,152.8,0,0,0-36.59-55c-35.34-34.18-78.57-49.57-126.88-52.14a212.4,212.4,0,0,0-68.68,7.69C137,204.3,82.46,245.41,49.72,312.88,33.5,346.31,27.29,381.81,33.79,418.67c9.68,54.87,40.56,94.39,89.83,119.6,32.18,16.46,66.73,22.2,102.64,20.75,2.71-.11,5.42,0,8.47,0,2.91,29.16,8.28,57.47,17.61,85.35a29.6,29.6,0,0,1-3.06,0c-23.23-3-46.45-6-69.69-8.93-5.71-.72-9.54,1.71-10,5.93s2.54,7.24,8,7.93c6.26.79,12.58,1.14,18.83,2,19.23,2.69,38.44,5.58,57.67,8.29,3.11.44,4.69,2,5.94,4.84,3.6,8.13,7.54,16.12,11.31,24.17.57,1.21,1,2.48,1.7,4.26-27.55-.13-53.65,4.69-79.7,9.91-5.24,1-8.14,3.94-7.76,7.71.41,4.1,4,6.72,9.44,6.06,6.73-.81,13.41-2.08,20.06-3.41a321.6,321.6,0,0,1,63.11-6.27c1.58,0,3.8.54,4.64,1.65C290.52,718.52,297.9,728.73,305.48,739.06Z" transform="translate(-13.08 -13.08)"/><path d="M305.48,739.06c-7.58-10.33-15-20.54-22.58-30.56-.84-1.11-3.06-1.65-4.64-1.65a321.6,321.6,0,0,0-63.11,6.27c-6.65,1.33-13.33,2.6-20.06,3.41-5.46.66-9-2-9.44-6.06-.38-3.77,2.52-6.66,7.76-7.71,26.05-5.22,52.15-10,79.7-9.91-.71-1.78-1.13-3.05-1.7-4.26-3.77-8.05-7.71-16-11.31-24.17-1.25-2.81-2.83-4.4-5.94-4.84-19.23-2.71-38.44-5.6-57.67-8.29-6.25-.88-12.57-1.23-18.83-2-5.48-.69-8.42-3.75-8-7.93s4.24-6.65,10-5.93c23.24,2.92,46.46,6,69.69,8.93a29.6,29.6,0,0,0,3.06,0c-9.33-27.88-14.7-56.19-17.61-85.35-3,0-5.76-.09-8.47,0-35.91,1.45-70.46-4.29-102.64-20.75-49.27-25.21-80.15-64.73-89.83-119.6-6.5-36.86-.29-72.36,15.93-105.79C82.46,245.41,137,204.3,208.35,184.35A212.4,212.4,0,0,1,277,176.66c48.31,2.57,91.54,18,126.88,52.14a152.8,152.8,0,0,1,36.59,55c1.2,3.09,2.57,3.91,6,3.71,21.16-1.21,42.33-2.66,63.5-2.83,14.35-.11,28.73,1.67,43.07,2.82,2.66.21,4-.13,5.1-2.83,23.84-57.36,67.94-90.71,127.43-103,76.37-15.81,144.28,5.11,203.83,53.87,37.25,30.52,63,69.27,73.42,116.7,13.42,61-1.48,114.4-46.83,158-26.43,25.4-58.94,39.41-94.86,45.85-16.35,2.94-32.82,3.4-49.36,2.93-2.26-.06-4.51,0-7.42,0-3.05,28.87-8.16,57.28-17.81,85.59,5.46-.78,10.31-1.56,15.17-2.16q28.86-3.55,57.73-7c5.2-.62,8.93,1.38,9.83,5,1.09,4.4-2.11,8.13-7.93,8.89s-11.93,1.14-17.86,2c-19.24,2.65-38.46,5.47-57.7,8.1-3.83.52-5.74,2.44-7.23,6-3.25,7.76-7.12,15.25-10.72,22.85-.6,1.26-1.15,2.54-1.93,4.25,7.47.5,14.4.53,21.21,1.49,19.86,2.8,39.67,5.93,59.48,9,4.13.65,6.85,3.12,6.72,7.55-.12,3.82-3.74,6.74-8.43,6.08-10.55-1.5-21-4.09-31.54-5.25-17.65-1.92-35.38-3.11-53.09-4.45a5.42,5.42,0,0,0-4.16,1.64c-7.6,10-15,20.23-22.45,30.4,7.35,3.84,15,7.62,22.42,11.78,5.5,3.08,10.82,6.52,16,10.06,4.32,2.93,5.35,7.44,2.89,10.83s-6.11,3.47-10.78.84c-12.38-7-24.84-13.88-37.24-20.85-3.18-1.79-5.47-1-8.08,1.47-39.54,37.42-87,58.35-140.35,66.48-15.28,2.33-31,4.32-46.33,3.44C428,819.27,370,799.07,321.93,754.65c-4.05-3.75-7.31-5-12.18-2.21-10.51,6.06-21.14,11.91-31.72,17.85-.7.4-1.34.9-2,1.33-5.58,3.55-9.9,3.39-12.26-.45s-.76-8,4.75-11.57c6-3.84,12.05-7.63,18.28-11.09C292.84,745.14,299.17,742.22,305.48,739.06ZM698,709.64l-.94-1.17c-11.32,1.38-22.86,1.43-33.63,6.13-4.39,1.91-7.86,1-9.66-2.45-1.71-3.29-.5-7.31,3.43-9.49a31.15,31.15,0,0,1,9.44-3.7c12.6-2.14,25.28-3.87,37.92-5.82,1.5-.23,3.73-.45,4.3-1.43,4.69-8.18,9.08-16.54,13.56-24.85l-1.07-1c-6.68,2.31-13.46,4.37-20,7-15.63,6.24-31.52,12-45,22.56-2.92,2.28-6.18,2.18-8.77-.63-2.74-3-2.62-6.62.14-9.19A65.23,65.23,0,0,1,660,676.27a298.17,298.17,0,0,1,65.81-27.44c2-.57,4.57-2.78,5.13-4.73,4.78-16.8,9.88-33.58,13.42-50.67a156.39,156.39,0,0,0,3.58-36.5c-.87-26.16-5.75-51.84-13.21-76.95-15.26-51.38-39.38-97.64-79.45-134.29-20.13-18.41-42.85-32.39-70-38.25-14-3-27.86-5.49-42.27-5.55-17-.07-34-1.77-51-1.82-13.09-.05-26.18,1.67-39.29,2-26.15.73-51.13,6.07-74.22,18.59-29.29,15.87-52,39-70.73,66.14C278.09,430,261.09,478,253.66,529.64c-1.68,11.69-4,23.64-3.19,35.26,2,26.9,8.25,53.09,17.11,78.63,1.16,3.34,3,4.81,6.3,5.7,23.3,6.23,45.25,15.83,66.23,27.63a55.41,55.41,0,0,1,11.13,8.53c2.87,2.78,3.1,6.51.05,9.55s-6,2.22-9.23,0c-4.4-3-8.69-6.34-13.49-8.54-12.51-5.73-25.23-11-37.95-16.25-4.25-1.76-8.74-2.9-13.12-4.32l-.8,1c4.24,8,8.39,16,12.8,23.86a5.74,5.74,0,0,0,3.82,2.28c6.1.85,12.32,1,18.34,2.15,9.66,1.88,19.32,3.94,28.73,6.77,5.07,1.53,6.76,6.3,5,10s-5.3,4.47-10.45,2.33c-10.59-4.38-21.87-4.5-33.21-5.3,3.89,5.87,8.31,11,12.17,16.54,4.68,6.7,10.21,9.88,18.27,6.32a5.58,5.58,0,0,1,1.89-.42c5.81-.38,11.63-1.08,17.43-.95,3.94.09,6.81,2.66,6.66,6.92-.14,4-2.91,6-6.71,6.46-1.76.22-3.57,0-5.34.22-3.79.38-7.56.86-11.34,1.3-.06.49-.12,1-.17,1.45,49.6,42.76,108,63.33,172.87,61.24,58.84-1.89,112.32-21.65,156.84-62.23a95,95,0,0,0-14.52-1.79c-5.59-.33-8.94-2.86-8.92-6.93s3.46-7.16,9-6.79c8.06.54,16.05,1.89,24.08,2.78,1.47.17,3.67.4,4.4-.42C685,725.13,691.44,717.35,698,709.64ZM426.6,288.76c-.51-1.36-1-2.72-1.53-4a142.64,142.64,0,0,0-41-54.13c-32.13-26.31-69.61-38.16-110.6-39.25a221.41,221.41,0,0,0-109.63,25.49c-50.63,26.38-88.58,64.78-107.78,119.33-16.35,46.48-13.83,92,12.87,134.47,35.38,56.22,102.86,78.9,164.74,73,1.19-.11,2.88-2.23,3.13-3.63,1.78-10,2.89-20.21,4.86-30.2C253.52,449.65,277,395,318.72,349.29c23.22-25.45,50.58-45,84-54.92C410.42,292.07,418.41,290.65,426.6,288.76Zm145,0c2.14.53,3.2.89,4.3,1.05,28.61,4.25,53.77,16.33,76.48,33.86,31.68,24.45,54.86,55.74,72.88,91.1,19.93,39.12,31.5,80.76,36.57,124.26.45,3.88,2,4.75,5.38,5A210.49,210.49,0,0,0,821,541.17c35-6.68,66.11-21.26,90.76-47.29,36.25-38.26,47.68-84,37.43-135.24-7.77-38.89-26.92-71.92-55.28-99.11C837.23,205.21,770,181.59,691.84,195.3c-45.33,8-82.19,30.84-107.58,70.17C579.56,272.74,576,280.72,571.64,288.76Z" transform="translate(-13.08 -13.08)"/><path class="cls-1" d="M698,709.64c-6.54,7.71-13,15.49-19.71,23.05-.73.82-2.93.59-4.4.42-8-.89-16-2.24-24.08-2.78-5.5-.37-8.93,2.73-9,6.79s3.33,6.6,8.92,6.93a95,95,0,0,1,14.52,1.79c-44.52,40.58-98,60.34-156.84,62.23-64.85,2.09-123.27-18.48-172.87-61.24.05-.48.11-1,.17-1.45,3.78-.44,7.55-.92,11.34-1.3,1.77-.18,3.58,0,5.34-.22,3.8-.47,6.57-2.49,6.71-6.46.15-4.26-2.72-6.83-6.66-6.92-5.8-.13-11.62.57-17.43.95a5.58,5.58,0,0,0-1.89.42c-8.06,3.56-13.59.38-18.27-6.32C310,720,305.59,714.86,301.7,709c11.34.8,22.62.92,33.21,5.3,5.15,2.14,8.64,1.44,10.45-2.33s.1-8.48-5-10c-9.41-2.83-19.07-4.89-28.73-6.77-6-1.17-12.24-1.3-18.34-2.15a5.74,5.74,0,0,1-3.82-2.28c-4.41-7.87-8.56-15.89-12.8-23.86l.8-1c4.38,1.42,8.87,2.56,13.12,4.32,12.72,5.25,25.44,10.52,37.95,16.25,4.8,2.2,9.09,5.54,13.49,8.54,3.19,2.18,6.33,2.87,9.23,0s2.82-6.77-.05-9.55a55.41,55.41,0,0,0-11.13-8.53c-21-11.8-42.93-21.4-66.23-27.63-3.32-.89-5.14-2.36-6.3-5.7-8.86-25.54-15.14-51.73-17.11-78.63-.84-11.62,1.51-23.57,3.19-35.26,7.43-51.6,24.43-99.67,54.17-142.8,18.72-27.15,41.44-50.27,70.73-66.14,23.09-12.52,48.07-17.86,74.22-18.59,13.11-.37,26.2-2.09,39.29-2,17,.05,34,1.75,51,1.82,14.41.06,28.31,2.53,42.27,5.55,27.15,5.86,49.87,19.84,70,38.25C695.38,382.34,719.5,428.6,734.76,480c7.46,25.11,12.34,50.79,13.21,76.95a156.39,156.39,0,0,1-3.58,36.5c-3.54,17.09-8.64,33.87-13.42,50.67-.56,1.95-3.09,4.16-5.13,4.73A298.17,298.17,0,0,0,660,676.27a65.23,65.23,0,0,0-12.36,9.29c-2.76,2.57-2.88,6.21-.14,9.19,2.59,2.81,5.85,2.91,8.77.63,13.49-10.55,29.38-16.32,45-22.56,6.56-2.62,13.34-4.68,20-7l1.07,1c-4.48,8.31-8.87,16.67-13.56,24.85-.57,1-2.8,1.2-4.3,1.43-12.64,2-25.32,3.68-37.92,5.82a31.15,31.15,0,0,0-9.44,3.7c-3.93,2.18-5.14,6.2-3.43,9.49,1.8,3.45,5.27,4.36,9.66,2.45,10.77-4.7,22.31-4.75,33.63-6.13ZM499.45,532.32c.95,1.69,1.5,2.79,2.18,3.82,7.35,11.23,13.9,23.12,22.26,33.54,19.82,24.73,44.35,43.13,75.67,50.93,42.71,10.66,80.94-10.53,95-52.28,6.16-18.35,7.35-37.14,4.85-56.19-4.87-37.09-20-69.7-44.67-97.58-22.9-25.9-50.06-44.91-85.89-48.5-20.93-2.1-39.44,3.23-55.78,16.33-5,4-9.93,8.26-14.88,12.4.32.66-.52-.26-1.3-1.23-12.41-15.58-28.52-24.78-48.22-27.34-21.9-2.86-42.21,2.59-61.16,13.19-37.58,21-62.39,53.1-77.69,92.72-11.4,29.52-15.64,60-6.81,91,8.17,28.71,25.31,49.55,55.08,57.56,22.15,6,43.45,1.72,63.73-8.06,32.91-15.87,56.3-41.47,73.76-73C496.77,537.41,497.93,535.15,499.45,532.32Zm2.65,65c-17.87,1-29.79,8.7-40.31,19a5.25,5.25,0,0,0-1.06,4c2.71,19.07,11.21,34.66,27.8,45.21,7.27,4.62,14.68,4.62,22,0,16.59-10.54,25.12-26.12,27.76-45.2a6.36,6.36,0,0,0-2-5c-5.69-4.51-11.29-9.37-17.66-12.68C512.8,599.67,506.08,598.53,502.1,597.3ZM498.84,714c5.59,6.64,10.46,13.31,16.24,19.07,9,9,20.66,13.78,32.72,17.34,5,1.48,9.1-.61,10.27-4.68s-1-7.75-5.94-9.68c-1.81-.7-3.68-1.25-5.54-1.82-21.08-6.52-34.33-20.57-40.14-41.75-1-3.75-3.24-6.13-7.13-6-3.65.08-5.76,2.41-6.73,5.95-5.81,21.4-19.27,35.46-40.52,42a50.72,50.72,0,0,0-6.41,2.26c-4.22,1.94-6.06,5.7-4.57,9.47,1.63,4.13,5,5.23,9.11,4.54a25.16,25.16,0,0,0,3.27-.9C473.29,743.65,489.3,732.68,498.84,714ZM396.5,361.12c26.34-3.31,48.37-14,63.83-36.23a46.71,46.71,0,0,0,5.09-9.92c1.36-3.55.46-6.91-3.21-8.64-3.43-1.61-6.38-.31-8.48,2.66-1.21,1.71-1.88,3.81-3.16,5.46-3.34,4.33-6.29,9.23-10.45,12.63-15.95,13-33.45,21.56-55,16.88A7.41,7.41,0,0,0,376,349.9c-.68,3.84,1.62,7.47,6.13,8.59C386.76,359.65,391.59,360.25,396.5,361.12Zm205.7-.43c1.94-.11,3.9-.1,5.82-.37a73.28,73.28,0,0,0,7.63-1.45c5.54-1.39,8.24-4.78,7.41-9.08-.85-4.47-5-6.56-10.71-5.69-4,.61-8.13,1.8-12,1.25C577.3,342,558,332.53,546.5,311c-2.58-4.81-6.21-6.4-9.8-4.64-3.75,1.83-4.69,6-2.14,11C548.62,345,573,356.65,602.2,360.69Z" transform="translate(-13.08 -13.08)"/><path class="cls-1" d="M426.6,288.76c-8.19,1.89-16.18,3.31-23.9,5.61-33.4,10-60.76,29.47-84,54.92C277,395,253.52,449.65,241.67,509.77c-2,10-3.08,20.16-4.86,30.2-.25,1.4-1.94,3.52-3.13,3.63-61.88,5.95-129.36-16.73-164.74-73-26.7-42.44-29.22-88-12.87-134.47,19.2-54.55,57.15-93,107.78-119.33a221.41,221.41,0,0,1,109.63-25.49c41,1.09,78.47,12.94,110.6,39.25a142.64,142.64,0,0,1,41,54.13C425.64,286,426.09,287.4,426.6,288.76Z" transform="translate(-13.08 -13.08)"/><path class="cls-1" d="M571.64,288.76c4.32-8,7.92-16,12.62-23.29,25.39-39.33,62.25-62.21,107.58-70.17,78.14-13.71,145.39,9.91,202.07,64.23,28.36,27.19,47.51,60.22,55.28,99.11,10.25,51.28-1.18,97-37.43,135.24-24.65,26-55.77,40.61-90.76,47.29A210.49,210.49,0,0,1,767.25,544c-3.36-.22-4.93-1.09-5.38-5-5.07-43.5-16.64-85.14-36.57-124.26-18-35.36-41.2-66.65-72.88-91.1-22.71-17.53-47.87-29.61-76.48-33.86C574.84,289.65,573.78,289.29,571.64,288.76Z" transform="translate(-13.08 -13.08)"/><path d="M499.45,532.32c-1.52,2.83-2.68,5.09-3.9,7.31-17.46,31.54-40.85,57.14-73.76,73-20.28,9.78-41.58,14-63.73,8.06-29.77-8-46.91-28.85-55.08-57.56-8.83-31-4.59-61.49,6.81-91,15.3-39.62,40.11-71.68,77.69-92.72,18.95-10.6,39.26-16.05,61.16-13.19,19.7,2.56,35.81,11.76,48.22,27.34.78,1,1.62,1.89,1.3,1.23,4.95-4.14,9.84-8.36,14.88-12.4,16.34-13.1,34.85-18.43,55.78-16.33,35.83,3.59,63,22.6,85.89,48.5,24.64,27.88,39.8,60.49,44.67,97.58,2.5,19.05,1.31,37.84-4.85,56.19-14,41.75-52.26,62.94-95,52.28-31.32-7.8-55.85-26.2-75.67-50.93-8.36-10.42-14.91-22.31-22.26-33.54C501,535.11,500.4,534,499.45,532.32Zm.41-107.73c-2.47-3.89-5.68-8.52-8.48-13.38-12.42-21.57-37.94-34.35-61.67-30.61-13.41,2.12-26.23,6.16-37.81,13.33-41.94,26-66.47,64.08-76.07,112-4.72,23.54-3.65,46.93,7.58,68.77,11.38,22.14,29.82,33.66,54.86,33.59,20.88-.07,39.12-8.11,55.81-20,24.51-17.47,41.92-40.67,54.43-67.81,2.59-5.62,5.49-11.08,8.57-17.27,12.65,23.6,26.9,44.78,44,63.84,16.65,18.52,36.39,32.64,61,38.87,36.68,9.28,67.28-7.75,78.78-43.81a97.43,97.43,0,0,0,4.53-36.46c-3.52-51.5-26.18-93-67-124.22-17.3-13.25-36.95-21.4-59.34-20.85-16.3.41-30.75,5.86-41.45,18.29C510.9,406.62,505.79,415.85,499.86,424.59Z" transform="translate(-13.08 -13.08)"/><path d="M502.1,597.3c4,1.23,10.7,2.37,16.45,5.36,6.37,3.31,12,8.17,17.66,12.68a6.36,6.36,0,0,1,2,5c-2.64,19.08-11.17,34.66-27.76,45.2-7.28,4.62-14.69,4.62-22,0-16.59-10.55-25.09-26.14-27.8-45.21a5.25,5.25,0,0,1,1.06-4C472.31,606,484.23,598.33,502.1,597.3Zm20.23,27.17a18.84,18.84,0,0,0-2.14-3.64c-10.77-11.94-30.87-11.89-41.45.13-.94,1.07-1.86,3-1.55,4.2,3,11.49,8.74,21.2,19.31,27.29a6.86,6.86,0,0,0,5.74.14C513.16,646.6,518.61,636.52,522.33,624.47Z" transform="translate(-13.08 -13.08)"/><path d="M498.84,714c-9.54,18.66-25.55,29.63-45.37,35.74a25.16,25.16,0,0,1-3.27.9c-4.12.69-7.48-.41-9.11-4.54-1.49-3.77.35-7.53,4.57-9.47a50.72,50.72,0,0,1,6.41-2.26c21.25-6.52,34.71-20.58,40.52-42,1-3.54,3.08-5.87,6.73-5.95,3.89-.09,6.11,2.29,7.13,6,5.81,21.18,19.06,35.23,40.14,41.75,1.86.57,3.73,1.12,5.54,1.82,5,1.93,7.13,5.5,5.94,9.68s-5.24,6.16-10.27,4.68c-12.06-3.56-23.67-8.32-32.72-17.34C509.3,727.33,504.43,720.66,498.84,714Z" transform="translate(-13.08 -13.08)"/><path d="M396.5,361.12c-4.91-.87-9.74-1.47-14.42-2.63-4.51-1.12-6.81-4.75-6.13-8.59a7.41,7.41,0,0,1,9.16-5.94c21.56,4.68,39.06-3.88,55-16.88,4.16-3.4,7.11-8.3,10.45-12.63,1.28-1.65,1.95-3.75,3.16-5.46,2.1-3,5-4.27,8.48-2.66,3.67,1.73,4.57,5.09,3.21,8.64a46.71,46.71,0,0,1-5.09,9.92C444.87,347.16,422.84,357.81,396.5,361.12Z" transform="translate(-13.08 -13.08)"/><path d="M602.2,360.69c-29.25-4-53.58-15.72-67.64-43.37-2.55-5-1.61-9.16,2.14-11,3.59-1.76,7.22-.17,9.8,4.64C558,332.53,577.3,342,600.35,345.35c3.87.55,8-.64,12-1.25,5.75-.87,9.86,1.22,10.71,5.69.83,4.3-1.87,7.69-7.41,9.08a73.28,73.28,0,0,1-7.63,1.45C606.1,360.59,604.14,360.58,602.2,360.69Z" transform="translate(-13.08 -13.08)"/><path class="cls-1" d="M499.86,424.59c5.93-8.74,11-18,17.77-25.79,10.7-12.43,25.15-17.88,41.45-18.29,22.39-.55,42,7.6,59.34,20.85,40.8,31.27,63.46,72.72,67,124.22A97.43,97.43,0,0,1,680.87,562c-11.5,36.06-42.1,53.09-78.78,43.81-24.58-6.23-44.32-20.35-61-38.87-17.14-19.06-31.39-40.24-44-63.84-3.08,6.19-6,11.65-8.57,17.27-12.51,27.14-29.92,50.34-54.43,67.81-16.69,11.91-34.93,19.95-55.81,20-25,.07-43.48-11.45-54.86-33.59-11.23-21.84-12.3-45.23-7.58-68.77C325.43,458,350,419.94,391.9,393.93c11.58-7.17,24.4-11.21,37.81-13.33,23.73-3.74,49.25,9,61.67,30.61C494.18,416.07,497.39,420.7,499.86,424.59Zm-90.1,78.57,1.27.28c0,1.46,0,2.92,0,4.37.33,9.31,3.46,14.41,9.53,15.56s11.88-2.9,15.47-10.79a13.6,13.6,0,0,0,1.06-2.71c1.39-6.31,3-12.59,4-19a72.25,72.25,0,0,0,.79-14c-.29-7.41-5.51-13.64-11.46-14.43-6.17-.82-11.26,2.61-13.56,10.64C414,483,412.08,493.13,409.76,503.16Zm178.68.73a98.9,98.9,0,0,0-7.34-33.59c-1.89-4.58-5.25-7.83-10.64-7.91s-9.23,2.91-11.36,7.65c-1.16,2.59-2.25,5.68-1.92,8.37,1.27,10.55,2.69,21.13,5,31.5.84,3.82,3.69,7.65,6.6,10.47,6.31,6.09,15.6,3.4,18-5C587.84,511.68,587.91,507.72,588.44,503.89Z" transform="translate(-13.08 -13.08)"/><path class="cls-1" d="M522.33,624.47c-3.72,12-9.17,22.13-20.09,28.12a6.86,6.86,0,0,1-5.74-.14c-10.57-6.09-16.33-15.8-19.31-27.29-.31-1.2.61-3.13,1.55-4.2,10.58-12,30.68-12.07,41.45-.13A18.84,18.84,0,0,1,522.33,624.47Z" transform="translate(-13.08 -13.08)"/><path d="M409.76,503.16c2.32-10,4.25-20.18,7.1-30.07,2.3-8,7.39-11.46,13.56-10.64,5.95.79,11.17,7,11.46,14.43a72.25,72.25,0,0,1-.79,14c-1,6.38-2.6,12.66-4,19a13.6,13.6,0,0,1-1.06,2.71c-3.59,7.89-9.41,11.94-15.47,10.79s-9.2-6.25-9.53-15.56c-.05-1.45,0-2.91,0-4.37Z" transform="translate(-13.08 -13.08)"/><path d="M588.44,503.89c-.53,3.83-.6,7.79-1.66,11.47-2.42,8.42-11.71,11.11-18,5-2.91-2.82-5.76-6.65-6.6-10.47-2.29-10.37-3.71-21-5-31.5-.33-2.69.76-5.78,1.92-8.37,2.13-4.74,5.87-7.72,11.36-7.65s8.75,3.33,10.64,7.91A98.9,98.9,0,0,1,588.44,503.89Z" transform="translate(-13.08 -13.08)"/></g></svg>